<?xml version="1.0" encoding="UTF-8" standalone="no"?>
<!DOCTYPE svg PUBLIC "-//W3C//DTD SVG 1.1//EN" "http://www.w3.org/Graphics/SVG/1.1/DTD/svg11.dtd">
<svg width="100%" height="100%" viewBox="0 0 400 150" version="1.1" xmlns="http://www.w3.org/2000/svg" xmlns:xlink="http://www.w3.org/1999/xlink" xml:space="preserve" xmlns:serif="http://www.serif.com/" style="fill-rule:evenodd;clip-rule:evenodd;stroke-linejoin:round;stroke-miterlimit:2;">
    <g transform="matrix(0.789601,0,0,0.605851,-23.2236,-25.5319)">
        <path d="M535.996,91.659C535.996,64.33 518.972,42.142 498.003,42.142L67.406,42.142C46.436,42.142 29.412,64.33 29.412,91.659L29.412,240.211C29.412,267.54 46.436,289.728 67.406,289.728L498.003,289.728C518.972,289.728 535.996,267.54 535.996,240.211L535.996,91.659Z" style="fill:rgb(255,223,0);"/>
    </g>
    <g transform="matrix(0.976502,0,0,0.976502,6.60474,-6.43611)">
        <path d="M91.126,70.634C92.226,66.485 92.776,63.014 92.776,60.221C92.776,57.427 92.014,55.12 90.491,53.3C88.967,51.48 86.998,50.569 84.586,50.569C82.173,50.569 80.162,51.755 78.554,54.125C76.945,56.496 76.141,59.205 76.141,62.252C76.141,68.178 79.527,73.258 86.3,77.491C93.073,81.893 97.687,85.068 100.142,87.015C102.597,88.962 104.332,90.74 105.348,92.348C107.888,96.497 109.158,100.772 109.158,105.174C109.158,112.793 106.597,118.868 101.475,123.397C96.353,127.926 90.575,130.191 84.141,130.191C76.522,130.191 70.13,126.974 64.966,120.54C61.241,115.883 57.812,110.084 54.68,103.142L66.998,97.174C68.945,102.253 71.379,106.55 74.3,110.063C77.22,113.576 80.332,115.333 83.633,115.333C85.75,115.333 87.655,114.656 89.348,113.301C91.041,111.947 91.887,109.894 91.887,107.142C91.887,104.391 90.829,101.83 88.713,99.46C86.596,97.089 83.76,94.676 80.205,92.221C76.649,89.766 73.898,87.756 71.95,86.189C70.003,84.623 67.845,82.613 65.474,80.158C60.987,75.417 58.744,69.342 58.744,61.935C58.744,54.527 61.326,48.305 66.49,43.268C71.654,38.231 77.792,35.712 84.903,35.712C92.014,35.712 98.004,38.463 102.872,43.966C107.74,49.469 110.174,55.12 110.174,60.919C110.174,66.718 109.073,71.692 106.872,75.84L91.126,70.634Z" style="fill-rule:nonzero;"/>
        <path d="M131.508,126.381C130.661,111.396 130.238,98.338 130.238,87.205C130.238,76.073 130.492,64.453 131,52.347L115.507,54.506L112.713,39.776C121.01,38.336 129.222,37.278 137.349,36.601L161.096,35.331L163.508,49.427C158.852,49.681 153.603,50.062 147.762,50.569C147.254,62.76 147,73.935 147,84.094C147,94.253 147.169,108.814 147.508,127.778L131.508,126.381Z" style="fill-rule:nonzero;"/>
        <path d="M203.636,124.857L200.716,107.206L181.795,107.968L176.969,131.841L159.191,130.318L181.922,38.252L205.414,40.283L222.05,126.381L203.636,124.857ZM192.462,54.887L184.461,94.38L198.684,93.872L192.462,54.887Z" style="fill-rule:nonzero;"/>
        <path d="M232.209,127.27C233.309,106.952 233.86,88.835 233.86,72.919C233.86,57.004 233.817,46.548 233.733,41.553C243.045,37.151 252.738,34.95 262.813,34.95C270.263,34.95 276.506,37.32 281.543,42.061C286.58,46.802 289.099,53.49 289.099,62.125C289.099,72.115 282.03,81.724 267.892,90.952C275.596,100.603 283.469,111.227 291.512,122.825L279.321,131.841C273.988,123.799 264.421,110.677 250.622,92.475C250.368,105.513 249.987,117.746 249.479,129.175L232.209,127.27ZM251.003,83.84C257.268,80.877 262.601,77.216 267.003,72.856C271.405,68.496 273.607,64.538 273.607,60.982C273.607,57.427 272.57,54.675 270.495,52.728C268.421,50.781 265.691,49.808 262.305,49.808C258.918,49.808 255.193,50.527 251.13,51.966C251.13,66.274 251.087,76.898 251.003,83.84Z" style="fill-rule:nonzero;"/>
        <path d="M309.417,126.381C308.571,111.396 308.147,98.338 308.147,87.205C308.147,76.073 308.401,64.453 308.909,52.347L293.417,54.506L290.623,39.776C298.919,38.336 307.131,37.278 315.259,36.601L339.005,35.331L341.418,49.427C336.762,49.681 331.513,50.062 325.671,50.569C325.164,62.76 324.91,73.935 324.91,84.094C324.91,94.253 325.079,108.814 325.418,127.778L309.417,126.381Z" style="fill-rule:nonzero;"/>
    </g>
</svg>
