<?xml version="1.0" encoding="UTF-8" standalone="no"?>
<!DOCTYPE svg PUBLIC "-//W3C//DTD SVG 1.1//EN" "http://www.w3.org/Graphics/SVG/1.1/DTD/svg11.dtd">
<svg width="100%" height="100%" viewBox="0 0 540 150" version="1.1" xmlns="http://www.w3.org/2000/svg" xmlns:xlink="http://www.w3.org/1999/xlink" xml:space="preserve" xmlns:serif="http://www.serif.com/" style="fill-rule:evenodd;clip-rule:evenodd;stroke-linejoin:round;stroke-miterlimit:2;">
    <g transform="matrix(1.06596,0,0,0.605851,-31.3518,-25.5319)">
        <path d="M535.996,91.659C535.996,64.33 523.386,42.142 507.853,42.142L57.555,42.142C42.022,42.142 29.412,64.33 29.412,91.659L29.412,240.211C29.412,267.54 42.022,289.728 57.555,289.728L507.853,289.728C523.386,289.728 535.996,267.54 535.996,240.211L535.996,91.659Z" style="fill:rgb(255,223,0);"/>
    </g>
    <g transform="matrix(0.976502,0,0,0.976502,1.8306,-5.81609)">
        <path d="M91.126,70.634C92.226,66.485 92.776,63.014 92.776,60.221C92.776,57.427 92.014,55.12 90.491,53.3C88.967,51.48 86.998,50.569 84.586,50.569C82.173,50.569 80.162,51.755 78.554,54.125C76.945,56.496 76.141,59.205 76.141,62.252C76.141,68.178 79.527,73.258 86.3,77.491C93.073,81.893 97.687,85.068 100.142,87.015C102.597,88.962 104.332,90.74 105.348,92.348C107.888,96.497 109.158,100.772 109.158,105.174C109.158,112.793 106.597,118.868 101.475,123.397C96.353,127.926 90.575,130.191 84.141,130.191C76.522,130.191 70.13,126.974 64.966,120.54C61.241,115.883 57.812,110.084 54.68,103.142L66.998,97.174C68.945,102.253 71.379,106.55 74.3,110.063C77.22,113.576 80.332,115.333 83.633,115.333C85.75,115.333 87.655,114.656 89.348,113.301C91.041,111.947 91.887,109.894 91.887,107.142C91.887,104.391 90.829,101.83 88.713,99.46C86.596,97.089 83.76,94.676 80.205,92.221C76.649,89.766 73.898,87.756 71.95,86.189C70.003,84.623 67.845,82.613 65.474,80.158C60.987,75.417 58.744,69.342 58.744,61.935C58.744,54.527 61.326,48.305 66.49,43.268C71.654,38.231 77.792,35.712 84.903,35.712C92.014,35.712 98.004,38.463 102.872,43.966C107.74,49.469 110.174,55.12 110.174,60.919C110.174,66.718 109.073,71.692 106.872,75.84L91.126,70.634Z" style="fill-rule:nonzero;"/>
        <path d="M122.618,126.635C122.28,113.259 122.111,100.603 122.111,88.666C122.111,76.729 122.788,61.194 124.142,42.061C138.619,39.86 152.757,38.76 166.556,38.76L166.556,54.379C156.99,54.379 148.101,54.675 139.889,55.268C139.55,64.75 139.338,72.03 139.254,77.11C145.688,76.179 153.307,75.628 162.112,75.459L164.524,89.428C158.852,89.512 150.344,90.147 139,91.332C139,101.491 139.042,108.814 139.127,113.301C146.492,112.709 155.297,111.439 165.54,109.492L167.699,123.46C160.503,126.762 151.995,128.413 142.175,128.413L122.618,126.635Z" style="fill-rule:nonzero;"/>
        <path d="M188.271,126.381C187.424,111.396 187.001,98.338 187.001,87.205C187.001,76.073 187.255,64.453 187.763,52.347L172.271,54.506L169.477,39.776C177.773,38.336 185.985,37.278 194.112,36.601L217.859,35.331L220.272,49.427C215.616,49.681 210.367,50.062 204.525,50.569C204.017,62.76 203.763,73.935 203.763,84.094C203.763,94.253 203.933,108.814 204.271,127.778L188.271,126.381Z" style="fill-rule:nonzero;"/>
        <path d="M237.415,126.381C236.569,111.396 236.145,98.338 236.145,87.205C236.145,76.073 236.399,64.453 236.907,52.347L221.415,54.506L218.621,39.776C226.918,38.336 235.129,37.278 243.257,36.601L267.003,35.331L269.416,49.427C264.76,49.681 259.511,50.062 253.67,50.569C253.162,62.76 252.908,73.935 252.908,84.094C252.908,94.253 253.077,108.814 253.416,127.778L237.415,126.381Z" style="fill-rule:nonzero;"/>
        <path d="M297.734,38.252C296.972,51.628 296.591,66.697 296.591,83.459C296.591,100.222 297.142,115.502 298.242,129.302L281.099,127.778C279.998,110.508 279.448,94.909 279.448,80.983C279.448,67.057 279.829,52.305 280.591,36.728L297.734,38.252Z" style="fill-rule:nonzero;"/>
        <path d="M368.339,36.728L368.466,95.777C368.466,105.513 368.128,115.968 367.45,127.143L353.228,125.746C342.307,100.941 333.375,82.359 326.433,69.999C326.518,82.528 326.56,102.507 326.56,129.937L311.703,128.286C311.449,123.037 311.322,117.958 311.322,113.047C311.322,92.56 312.465,68.686 314.751,41.426L331.64,43.077C340.021,66.189 347.556,83.756 354.244,95.777C353.736,70.21 353.143,50.062 352.466,35.331L368.339,36.728Z" style="fill-rule:nonzero;"/>
        <path d="M416.214,75.713C416.552,74.02 416.722,71.247 416.722,67.395C416.722,63.543 416.087,59.988 414.817,56.728C413.547,53.469 411.684,51.839 409.229,51.839C406.266,51.839 403.388,55.67 400.594,63.332C397.8,70.993 396.404,79.205 396.404,87.967C396.404,96.729 397.25,103.587 398.943,108.539C400.636,113.492 403.134,115.968 406.436,115.968C409.737,115.968 412.235,114.444 413.928,111.396C415.621,108.349 416.891,103.862 417.737,97.936C414.69,97.936 411.43,98.232 407.959,98.825L405.293,86.253C412.997,85.745 422.648,84.814 434.246,83.459C434.754,87.861 435.008,91.883 435.008,95.523C435.008,99.163 433.928,103.693 431.77,109.111C429.611,114.529 426.394,119.312 422.118,123.46C417.843,127.609 413.166,129.683 408.086,129.683C399.282,129.683 392.234,126.254 386.943,119.397C381.652,112.539 379.006,102.846 379.006,90.317C379.006,81.089 380.149,72.454 382.435,64.411C384.721,56.369 388.107,49.765 392.594,44.601C397.081,39.437 402.203,36.855 407.959,36.855C413.547,36.855 418.796,38.887 423.706,42.95C426.246,45.067 428.299,48.093 429.865,52.03C431.431,55.966 432.214,60.094 432.214,64.411C432.214,68.729 431.833,72.919 431.071,76.983L416.214,75.713Z" style="fill-rule:nonzero;"/>
        <path d="M475.517,70.634C476.617,66.485 477.168,63.014 477.168,60.221C477.168,57.427 476.406,55.12 474.882,53.3C473.358,51.48 471.39,50.569 468.977,50.569C466.564,50.569 464.553,51.755 462.945,54.125C461.336,56.496 460.532,59.205 460.532,62.252C460.532,68.178 463.919,73.258 470.691,77.491C477.464,81.893 482.078,85.068 484.533,87.015C486.988,88.962 488.723,90.74 489.739,92.348C492.279,96.497 493.549,100.772 493.549,105.174C493.549,112.793 490.988,118.868 485.866,123.397C480.744,127.926 474.966,130.191 468.532,130.191C460.913,130.191 454.521,126.974 449.357,120.54C445.632,115.883 442.204,110.084 439.071,103.142L451.389,97.174C453.336,102.253 455.77,106.55 458.691,110.063C461.612,113.576 464.723,115.333 468.024,115.333C470.141,115.333 472.046,114.656 473.739,113.301C475.432,111.947 476.279,109.894 476.279,107.142C476.279,104.391 475.22,101.83 473.104,99.46C470.988,97.089 468.151,94.676 464.596,92.221C461.04,89.766 458.289,87.756 456.342,86.189C454.394,84.623 452.236,82.613 449.865,80.158C445.378,75.417 443.135,69.342 443.135,61.935C443.135,54.527 445.717,48.305 450.881,43.268C456.045,38.231 462.183,35.712 469.294,35.712C476.406,35.712 482.395,38.463 487.263,43.966C492.131,49.469 494.565,55.12 494.565,60.919C494.565,66.718 493.464,71.692 491.263,75.84L475.517,70.634Z" style="fill-rule:nonzero;"/>
    </g>
</svg>
