<?xml version="1.0" encoding="UTF-8" standalone="no"?>
<!DOCTYPE svg PUBLIC "-//W3C//DTD SVG 1.1//EN" "http://www.w3.org/Graphics/SVG/1.1/DTD/svg11.dtd">
<svg width="100%" height="100%" viewBox="0 0 400 150" version="1.1" xmlns="http://www.w3.org/2000/svg" xmlns:xlink="http://www.w3.org/1999/xlink" xml:space="preserve" xmlns:serif="http://www.serif.com/" style="fill-rule:evenodd;clip-rule:evenodd;stroke-linejoin:round;stroke-miterlimit:2;">
    <g transform="matrix(0.789601,0,0,0.605851,-23.2236,-25.5319)">
        <path d="M535.996,91.659C535.996,64.33 518.972,42.142 498.003,42.142L67.406,42.142C46.436,42.142 29.412,64.33 29.412,91.659L29.412,240.211C29.412,267.54 46.436,289.728 67.406,289.728L498.003,289.728C518.972,289.728 535.996,267.54 535.996,240.211L535.996,91.659Z" style="fill:rgb(255,223,0);"/>
    </g>
    <g transform="matrix(0.976502,0,0,0.976502,-0.401461,-6.43611)">
        <path d="M91.126,70.634C92.226,66.485 92.776,63.014 92.776,60.221C92.776,57.427 92.014,55.12 90.491,53.3C88.967,51.48 86.998,50.569 84.586,50.569C82.173,50.569 80.162,51.755 78.554,54.125C76.945,56.496 76.141,59.205 76.141,62.252C76.141,68.178 79.527,73.258 86.3,77.491C93.073,81.893 97.687,85.068 100.142,87.015C102.597,88.962 104.332,90.74 105.348,92.348C107.888,96.497 109.158,100.772 109.158,105.174C109.158,112.793 106.597,118.868 101.475,123.397C96.353,127.926 90.575,130.191 84.141,130.191C76.522,130.191 70.13,126.974 64.966,120.54C61.241,115.883 57.812,110.084 54.68,103.142L66.998,97.174C68.945,102.253 71.379,106.55 74.3,110.063C77.22,113.576 80.332,115.333 83.633,115.333C85.75,115.333 87.655,114.656 89.348,113.301C91.041,111.947 91.887,109.894 91.887,107.142C91.887,104.391 90.829,101.83 88.713,99.46C86.596,97.089 83.76,94.676 80.205,92.221C76.649,89.766 73.898,87.756 71.95,86.189C70.003,84.623 67.845,82.613 65.474,80.158C60.987,75.417 58.744,69.342 58.744,61.935C58.744,54.527 61.326,48.305 66.49,43.268C71.654,38.231 77.792,35.712 84.903,35.712C92.014,35.712 98.004,38.463 102.872,43.966C107.74,49.469 110.174,55.12 110.174,60.919C110.174,66.718 109.073,71.692 106.872,75.84L91.126,70.634Z" style="fill-rule:nonzero;"/>
        <path d="M131.508,126.381C130.661,111.396 130.238,98.338 130.238,87.205C130.238,76.073 130.492,64.453 131,52.347L115.507,54.506L112.713,39.776C121.01,38.336 129.222,37.278 137.349,36.601L161.096,35.331L163.508,49.427C158.852,49.681 153.603,50.062 147.762,50.569C147.254,62.76 147,73.935 147,84.094C147,94.253 147.169,108.814 147.508,127.778L131.508,126.381Z" style="fill-rule:nonzero;"/>
        <path d="M195.319,130.445C187.234,130.445 180.419,126.825 174.874,119.587C169.329,112.349 166.556,101.343 166.556,86.57C166.556,71.798 169.583,59.755 175.636,50.442C181.689,41.13 188.821,36.474 197.033,36.474C205.245,36.474 212.081,40.114 217.542,47.395C223.002,54.675 225.732,65.639 225.732,80.285C225.732,94.93 222.685,106.952 216.589,116.349C210.494,125.746 203.404,130.445 195.319,130.445ZM197.16,51.585C193.435,51.585 190.218,54.866 187.509,61.427C184.8,67.988 183.445,76.242 183.445,86.189C183.445,96.137 184.61,103.502 186.938,108.285C189.266,113.068 192.165,115.46 195.636,115.46C199.107,115.46 202.176,112.158 204.843,105.555C207.51,98.952 208.843,90.676 208.843,80.729C208.843,70.782 207.721,63.438 205.478,58.697C203.234,53.956 200.462,51.585 197.16,51.585Z" style="fill-rule:nonzero;"/>
        <path d="M236.272,127.27C237.373,106.952 237.923,88.835 237.923,72.919C237.923,57.004 237.881,46.548 237.796,41.553C247.109,37.151 256.802,34.95 266.876,34.95C274.326,34.95 280.57,37.32 285.607,42.061C290.644,46.802 293.163,53.49 293.163,62.125C293.163,72.115 286.094,81.724 271.956,90.952C279.66,100.603 287.533,111.227 295.575,122.825L283.385,131.841C278.051,123.799 268.485,110.677 254.685,92.475C254.431,105.513 254.051,117.746 253.543,129.175L236.272,127.27ZM255.066,83.84C261.331,80.877 266.665,77.216 271.067,72.856C275.469,68.496 277.67,64.538 277.67,60.982C277.67,57.427 276.633,54.675 274.559,52.728C272.485,50.781 269.755,49.808 266.368,49.808C262.982,49.808 259.257,50.527 255.193,51.966C255.193,66.274 255.151,76.898 255.066,83.84Z" style="fill-rule:nonzero;"/>
        <path d="M315.512,101.872L315.512,92.094C304.422,68.644 298.285,51.755 297.099,41.426L312.973,42.95C314.835,52.432 318.73,63.776 324.656,76.983C331.682,61.66 337.143,47.818 341.037,35.458L355.768,36.855C349.503,54.718 341.968,72.877 333.164,91.332C332.994,98.952 332.91,105.64 332.91,111.396C332.91,117.153 333.079,122.952 333.418,128.794L316.655,127.016C315.893,119.143 315.512,110.762 315.512,101.872Z" style="fill-rule:nonzero;"/>
    </g>
</svg>
