<?xml version="1.0" encoding="UTF-8" standalone="no"?>
<!DOCTYPE svg PUBLIC "-//W3C//DTD SVG 1.1//EN" "http://www.w3.org/Graphics/SVG/1.1/DTD/svg11.dtd">
<svg width="100%" height="100%" viewBox="0 0 400 150" version="1.1" xmlns="http://www.w3.org/2000/svg" xmlns:xlink="http://www.w3.org/1999/xlink" xml:space="preserve" xmlns:serif="http://www.serif.com/" style="fill-rule:evenodd;clip-rule:evenodd;stroke-linejoin:round;stroke-miterlimit:2;">
    <g transform="matrix(0.789601,0,0,0.605851,-23.2236,-25.5319)">
        <path d="M535.996,91.659C535.996,64.33 518.972,42.142 498.003,42.142L67.406,42.142C46.436,42.142 29.412,64.33 29.412,91.659L29.412,240.211C29.412,267.54 46.436,289.728 67.406,289.728L498.003,289.728C518.972,289.728 535.996,267.54 535.996,240.211L535.996,91.659Z" style="fill:rgb(255,223,0);"/>
    </g>
    <g transform="matrix(0.976502,0,0,0.976502,18.0751,-7.18013)">
        <path d="M62.045,41.68C71.95,38.633 80.903,37.109 88.903,37.109C96.903,37.109 103.697,39.246 109.285,43.522C114.872,47.797 117.666,53.067 117.666,59.332C117.666,68.729 112.417,76.179 101.919,81.681C111.74,85.66 116.65,92.306 116.65,101.618C116.65,108.476 113.052,114.592 105.856,119.968C98.66,125.344 91.126,128.032 83.252,128.032C82.236,128.032 74.998,127.439 61.537,126.254C62.723,108.052 63.315,92.729 63.315,80.285C63.315,67.84 62.892,54.972 62.045,41.68ZM100.523,61.109C100.523,58.57 99.274,56.432 96.776,54.697C94.279,52.961 91.612,52.093 88.776,52.093C85.94,52.093 82.914,52.601 79.697,53.617C80.035,63.776 80.205,71.438 80.205,76.602C84.099,76.263 88.459,74.507 93.284,71.332C98.11,68.157 100.523,64.75 100.523,61.109ZM86.046,112.539C88.84,112.539 91.803,111.418 94.935,109.174C98.068,106.931 99.634,104.349 99.634,101.428C99.634,98.507 97.814,95.946 94.173,93.745C90.533,91.544 85.834,90.19 80.078,89.682C79.908,99.671 79.739,107.164 79.57,112.158C81.094,112.412 83.252,112.539 86.046,112.539Z" style="fill-rule:nonzero;"/>
        <path d="M164.016,124.857L161.096,107.206L142.175,107.968L137.349,131.841L119.571,130.318L142.302,38.252L165.794,40.283L182.43,126.381L164.016,124.857ZM152.841,54.887L144.841,94.38L159.064,93.872L152.841,54.887Z" style="fill-rule:nonzero;"/>
        <path d="M218.875,53.109C215.15,53.109 211.891,57.702 209.097,66.887C206.303,76.073 204.906,84.221 204.906,91.332C204.906,106.232 208.801,113.682 216.589,113.682C218.79,113.682 220.716,112.73 222.367,110.825C224.018,108.92 225.203,106.952 225.923,104.92C226.642,102.888 227.51,100.095 228.526,96.539L244.653,97.809C242.452,108.222 239.172,116.18 234.812,121.682C230.452,127.185 224.378,129.937 216.589,129.937C207.446,129.937 200.398,126.487 195.446,119.587C190.493,112.688 188.017,103.904 188.017,93.237C188.017,80.793 190.472,68.686 195.382,56.919C197.753,51.077 201.076,46.273 205.351,42.506C209.626,38.738 214.515,36.855 220.018,36.855C226.791,36.855 231.701,39.098 234.748,43.585C236.272,45.786 237.521,48.03 238.495,50.316C239.468,52.601 240.167,55.522 240.59,59.078C241.352,64.75 241.817,70.845 241.987,77.364L225.605,75.84C225.605,64.919 224.589,58.062 222.558,55.268C221.626,53.829 220.399,53.109 218.875,53.109Z" style="fill-rule:nonzero;"/>
        <path d="M254.431,125.365C253.839,112.412 253.543,97.809 253.543,81.554C253.543,65.3 253.966,51.416 254.812,39.903L272.21,41.553C271.363,52.051 270.94,65.046 270.94,80.539C281.607,63.014 289.649,48.326 295.067,36.474L311.068,42.823C304.973,55.014 296.718,69.152 286.305,85.237C294.771,98.698 302.941,108.857 310.814,115.714L299.131,128.921C289.311,119.354 279.914,106.275 270.94,89.682C270.94,105.174 271.236,117.704 271.829,127.27L254.431,125.365Z" style="fill-rule:nonzero;"/>
    </g>
</svg>
