<?xml version="1.0" encoding="UTF-8" standalone="no"?>
<!DOCTYPE svg PUBLIC "-//W3C//DTD SVG 1.1//EN" "http://www.w3.org/Graphics/SVG/1.1/DTD/svg11.dtd">
<svg width="100%" height="100%" viewBox="0 0 540 150" version="1.1" xmlns="http://www.w3.org/2000/svg" xmlns:xlink="http://www.w3.org/1999/xlink" xml:space="preserve" xmlns:serif="http://www.serif.com/" style="fill-rule:evenodd;clip-rule:evenodd;stroke-linejoin:round;stroke-miterlimit:2;">
    <g transform="matrix(1.06596,0,0,0.605851,-31.3518,-25.5319)">
        <path d="M535.996,91.659C535.996,64.33 523.386,42.142 507.853,42.142L57.555,42.142C42.022,42.142 29.412,64.33 29.412,91.659L29.412,240.211C29.412,267.54 42.022,289.728 57.555,289.728L507.853,289.728C523.386,289.728 535.996,267.54 535.996,240.211L535.996,91.659Z" style="fill:rgb(255,223,0);"/>
    </g>
    <g transform="matrix(0.976502,0,0,0.976502,-19.994,-6.43611)">
        <path d="M86.935,53.109C83.21,53.109 79.951,57.702 77.157,66.887C74.363,76.073 72.966,84.221 72.966,91.332C72.966,106.232 76.861,113.682 84.649,113.682C86.85,113.682 88.776,112.73 90.427,110.825C92.078,108.92 93.263,106.952 93.983,104.92C94.702,102.888 95.57,100.095 96.586,96.539L112.713,97.809C110.512,108.222 107.232,116.18 102.872,121.682C98.512,127.185 92.438,129.937 84.649,129.937C75.506,129.937 68.458,126.487 63.506,119.587C58.553,112.688 56.077,103.904 56.077,93.237C56.077,80.793 58.532,68.686 63.442,56.919C65.813,51.077 69.136,46.273 73.411,42.506C77.686,38.738 82.575,36.855 88.078,36.855C94.851,36.855 99.761,39.098 102.808,43.585C104.332,45.786 105.581,48.03 106.555,50.316C107.528,52.601 108.227,55.522 108.65,59.078C109.412,64.75 109.877,70.845 110.047,77.364L93.665,75.84C93.665,64.919 92.649,58.062 90.618,55.268C89.686,53.829 88.459,53.109 86.935,53.109Z" style="fill-rule:nonzero;"/>
        <path d="M147.064,130.445C138.979,130.445 132.164,126.825 126.619,119.587C121.073,112.349 118.301,101.343 118.301,86.57C118.301,71.798 121.327,59.755 127.38,50.442C133.434,41.13 140.566,36.474 148.778,36.474C156.99,36.474 163.826,40.114 169.286,47.395C174.747,54.675 177.477,65.639 177.477,80.285C177.477,94.93 174.429,106.952 168.334,116.349C162.239,125.746 155.148,130.445 147.064,130.445ZM148.905,51.585C145.18,51.585 141.963,54.866 139.254,61.427C136.545,67.988 135.19,76.242 135.19,86.189C135.19,96.137 136.354,103.502 138.682,108.285C141.01,113.068 143.91,115.46 147.381,115.46C150.852,115.46 153.921,112.158 156.588,105.555C159.254,98.952 160.588,90.676 160.588,80.729C160.588,70.782 159.466,63.438 157.223,58.697C154.979,53.956 152.207,51.585 148.905,51.585Z" style="fill-rule:nonzero;"/>
        <path d="M243.638,36.728L243.765,95.777C243.765,105.513 243.426,115.968 242.749,127.143L228.526,125.746C217.605,100.941 208.674,82.359 201.732,69.999C201.816,82.528 201.859,102.507 201.859,129.937L187.001,128.286C186.747,123.037 186.62,117.958 186.62,113.047C186.62,92.56 187.763,68.686 190.049,41.426L206.938,43.077C215.319,66.189 222.854,83.756 229.542,95.777C229.034,70.21 228.441,50.062 227.764,35.331L243.638,36.728Z" style="fill-rule:nonzero;"/>
        <path d="M267.638,126.381C266.792,111.396 266.368,98.338 266.368,87.205C266.368,76.073 266.622,64.453 267.13,52.347L251.638,54.506L248.844,39.776C257.141,38.336 265.352,37.278 273.48,36.601L297.226,35.331L299.639,49.427C294.983,49.681 289.734,50.062 283.893,50.569C283.385,62.76 283.131,73.935 283.131,84.094C283.131,94.253 283.3,108.814 283.639,127.778L267.638,126.381Z" style="fill-rule:nonzero;"/>
        <path d="M306.242,127.27C307.343,106.952 307.893,88.835 307.893,72.919C307.893,57.004 307.851,46.548 307.766,41.553C317.079,37.151 326.772,34.95 336.846,34.95C344.296,34.95 350.54,37.32 355.577,42.061C360.614,46.802 363.133,53.49 363.133,62.125C363.133,72.115 356.064,81.724 341.926,90.952C349.63,100.603 357.503,111.227 365.546,122.825L353.355,131.841C348.021,123.799 338.455,110.677 324.656,92.475C324.402,105.513 324.021,117.746 323.513,129.175L306.242,127.27ZM325.037,83.84C331.301,80.877 336.635,77.216 341.037,72.856C345.439,68.496 347.64,64.538 347.64,60.982C347.64,57.427 346.603,54.675 344.529,52.728C342.455,50.781 339.725,49.808 336.338,49.808C332.952,49.808 329.227,50.527 325.164,51.966C325.164,66.274 325.121,76.898 325.037,83.84Z" style="fill-rule:nonzero;"/>
        <path d="M398.118,130.445C390.033,130.445 383.218,126.825 377.673,119.587C372.128,112.349 369.355,101.343 369.355,86.57C369.355,71.798 372.382,59.755 378.435,50.442C384.488,41.13 391.62,36.474 399.832,36.474C408.044,36.474 414.88,40.114 420.341,47.395C425.801,54.675 428.531,65.639 428.531,80.285C428.531,94.93 425.484,106.952 419.388,116.349C413.293,125.746 406.203,130.445 398.118,130.445ZM399.959,51.585C396.234,51.585 393.017,54.866 390.308,61.427C387.599,67.988 386.245,76.242 386.245,86.189C386.245,96.137 387.409,103.502 389.737,108.285C392.065,113.068 394.964,115.46 398.435,115.46C401.906,115.46 404.975,112.158 407.642,105.555C410.309,98.952 411.642,90.676 411.642,80.729C411.642,70.782 410.52,63.438 408.277,58.697C406.033,53.956 403.261,51.585 399.959,51.585Z" style="fill-rule:nonzero;"/>
        <path d="M441.992,125.365C440.891,107.926 440.341,91.946 440.341,77.427C440.341,62.908 440.807,49.723 441.738,37.871L458.627,39.395C457.358,53.956 456.723,67.882 456.723,81.173C456.723,94.465 456.934,104.243 457.358,110.508C460.405,110.084 467.897,109.238 479.834,107.968L482.374,122.698C476.025,123.46 467.051,124.73 455.453,126.508L441.992,125.365Z" style="fill-rule:nonzero;"/>
        <path d="M518.819,70.634C519.92,66.485 520.47,63.014 520.47,60.221C520.47,57.427 519.708,55.12 518.185,53.3C516.661,51.48 514.692,50.569 512.28,50.569C509.867,50.569 507.856,51.755 506.248,54.125C504.639,56.496 503.835,59.205 503.835,62.252C503.835,68.178 507.221,73.258 513.994,77.491C520.767,81.893 525.381,85.068 527.836,87.015C530.291,88.962 532.026,90.74 533.042,92.348C535.582,96.497 536.852,100.772 536.852,105.174C536.852,112.793 534.291,118.868 529.169,123.397C524.047,127.926 518.269,130.191 511.835,130.191C504.216,130.191 497.824,126.974 492.66,120.54C488.935,115.883 485.506,110.084 482.374,103.142L494.692,97.174C496.639,102.253 499.073,106.55 501.994,110.063C504.914,113.576 508.026,115.333 511.327,115.333C513.444,115.333 515.348,114.656 517.042,113.301C518.735,111.947 519.581,109.894 519.581,107.142C519.581,104.391 518.523,101.83 516.407,99.46C514.29,97.089 511.454,94.676 507.899,92.221C504.343,89.766 501.592,87.756 499.644,86.189C497.697,84.623 495.538,82.613 493.168,80.158C488.681,75.417 486.438,69.342 486.438,61.935C486.438,54.527 489.02,48.305 494.184,43.268C499.348,38.231 505.486,35.712 512.597,35.712C519.708,35.712 525.698,38.463 530.566,43.966C535.434,49.469 537.868,55.12 537.868,60.919C537.868,66.718 536.767,71.692 534.566,75.84L518.819,70.634Z" style="fill-rule:nonzero;"/>
    </g>
</svg>
