<?xml version="1.0" encoding="UTF-8" standalone="no"?>
<!DOCTYPE svg PUBLIC "-//W3C//DTD SVG 1.1//EN" "http://www.w3.org/Graphics/SVG/1.1/DTD/svg11.dtd">
<svg width="100%" height="100%" viewBox="0 0 580 150" version="1.1" xmlns="http://www.w3.org/2000/svg" xmlns:xlink="http://www.w3.org/1999/xlink" xml:space="preserve" xmlns:serif="http://www.serif.com/" style="fill-rule:evenodd;clip-rule:evenodd;stroke-linejoin:round;stroke-miterlimit:2;">
    <g transform="matrix(1.14492,0,0,0.605851,-33.6742,-25.5319)">
        <path d="M535.996,91.659C535.996,64.33 524.255,42.142 509.794,42.142L55.614,42.142C41.153,42.142 29.412,64.33 29.412,91.659L29.412,240.211C29.412,267.54 41.153,289.728 55.614,289.728L509.794,289.728C524.255,289.728 535.996,267.54 535.996,240.211L535.996,91.659Z" style="fill:rgb(255,223,0);"/>
    </g>
    <g transform="matrix(0.976502,0,0,0.976502,-36.8851,-6.62212)">
        <path d="M61.537,128.286C61.199,118.719 61.03,107.227 61.03,93.809C61.03,80.39 61.453,62.464 62.299,40.03C69.411,37.405 76.712,36.093 84.205,36.093C91.697,36.093 98.385,38.865 104.269,44.411C110.153,49.956 113.094,56.94 113.094,65.364C113.094,73.787 109.899,81.068 103.507,87.205C97.115,93.343 88.755,97.851 78.427,100.73C78.427,110.211 78.554,119.947 78.808,129.937L61.537,128.286ZM91.062,78.253C94.152,74.612 95.697,70.549 95.697,66.062C95.697,61.575 94.533,57.935 92.205,55.141C89.877,52.347 87.274,50.95 84.395,50.95C83.633,50.95 81.898,51.162 79.189,51.585C78.765,63.522 78.511,75.078 78.427,86.253C83.76,84.56 87.972,81.893 91.062,78.253Z" style="fill-rule:nonzero;"/>
        <path d="M122.618,125.365C121.518,107.926 120.968,91.946 120.968,77.427C120.968,62.908 121.433,49.723 122.364,37.871L139.254,39.395C137.984,53.956 137.349,67.882 137.349,81.173C137.349,94.465 137.561,104.243 137.984,110.508C141.032,110.084 148.524,109.238 160.461,107.968L163,122.698C156.651,123.46 147.677,124.73 136.079,126.508L122.618,125.365Z" style="fill-rule:nonzero;"/>
        <path d="M208.335,124.857L205.414,107.206L186.493,107.968L181.668,131.841L163.889,130.318L186.62,38.252L210.113,40.283L226.748,126.381L208.335,124.857ZM197.16,54.887L189.16,94.38L203.383,93.872L197.16,54.887Z" style="fill-rule:nonzero;"/>
        <path d="M247.193,101.872L247.193,92.094C236.103,68.644 229.965,51.755 228.78,41.426L244.653,42.95C246.516,52.432 250.41,63.776 256.336,76.983C263.363,61.66 268.823,47.818 272.718,35.458L287.448,36.855C281.184,54.718 273.649,72.877 264.844,91.332C264.675,98.952 264.59,105.64 264.59,111.396C264.59,117.153 264.76,122.952 265.098,128.794L248.336,127.016C247.574,119.143 247.193,110.762 247.193,101.872Z" style="fill-rule:nonzero;"/>
        <path d="M358.688,124.857L355.768,107.206L336.846,107.968L332.021,131.841L314.243,130.318L336.973,38.252L360.466,40.283L377.101,126.381L358.688,124.857ZM347.513,54.887L339.513,94.38L353.736,93.872L347.513,54.887Z" style="fill-rule:nonzero;"/>
        <path d="M421.674,75.713C422.013,74.02 422.182,71.247 422.182,67.395C422.182,63.543 421.547,59.988 420.277,56.728C419.007,53.469 417.145,51.839 414.69,51.839C411.727,51.839 408.848,55.67 406.055,63.332C403.261,70.993 401.864,79.205 401.864,87.967C401.864,96.729 402.711,103.587 404.404,108.539C406.097,113.492 408.594,115.968 411.896,115.968C415.198,115.968 417.695,114.444 419.388,111.396C421.081,108.349 422.351,103.862 423.198,97.936C420.15,97.936 416.891,98.232 413.42,98.825L410.753,86.253C418.457,85.745 428.108,84.814 439.706,83.459C440.214,87.861 440.468,91.883 440.468,95.523C440.468,99.163 439.389,103.693 437.23,109.111C435.071,114.529 431.854,119.312 427.579,123.46C423.304,127.609 418.626,129.683 413.547,129.683C404.742,129.683 397.695,126.254 392.403,119.397C387.112,112.539 384.467,102.846 384.467,90.317C384.467,81.089 385.61,72.454 387.895,64.411C390.181,56.369 393.567,49.765 398.054,44.601C402.541,39.437 407.663,36.855 413.42,36.855C419.007,36.855 424.256,38.887 429.166,42.95C431.706,45.067 433.759,48.093 435.325,52.03C436.891,55.966 437.674,60.094 437.674,64.411C437.674,68.729 437.294,72.919 436.532,76.983L421.674,75.713Z" style="fill-rule:nonzero;"/>
        <path d="M487.454,124.857L484.533,107.206L465.612,107.968L460.786,131.841L443.008,130.318L465.739,38.252L489.231,40.283L505.867,126.381L487.454,124.857ZM476.279,54.887L468.278,94.38L482.501,93.872L476.279,54.887Z" style="fill-rule:nonzero;"/>
        <path d="M537.741,38.252C536.979,51.628 536.598,66.697 536.598,83.459C536.598,100.222 537.148,115.502 538.249,129.302L521.105,127.778C520.005,110.508 519.454,94.909 519.454,80.983C519.454,67.057 519.835,52.305 520.597,36.728L537.741,38.252Z" style="fill-rule:nonzero;"/>
        <path d="M608.346,36.728L608.473,95.777C608.473,105.513 608.134,115.968 607.457,127.143L593.234,125.746C582.313,100.941 573.382,82.359 566.44,69.999C566.524,82.528 566.567,102.507 566.567,129.937L551.709,128.286C551.455,123.037 551.328,117.958 551.328,113.047C551.328,92.56 552.471,68.686 554.757,41.426L571.646,43.077C580.027,66.189 587.562,83.756 594.25,95.777C593.742,70.21 593.15,50.062 592.472,35.331L608.346,36.728Z" style="fill-rule:nonzero;"/>
    </g>
</svg>
