<?xml version="1.0" encoding="UTF-8" standalone="no"?>
<!DOCTYPE svg PUBLIC "-//W3C//DTD SVG 1.1//EN" "http://www.w3.org/Graphics/SVG/1.1/DTD/svg11.dtd">
<svg width="100%" height="100%" viewBox="0 0 1000 1000" version="1.1" xmlns="http://www.w3.org/2000/svg" xmlns:xlink="http://www.w3.org/1999/xlink" xml:space="preserve" xmlns:serif="http://www.serif.com/" style="fill-rule:evenodd;clip-rule:evenodd;stroke-linejoin:round;stroke-miterlimit:2;">
    <g transform="matrix(1.01575,0,0,1.00389,-1.9685,-5.01821e-14)">
        <path d="M986.434,199.225C986.434,89.27 898.207,0 789.535,0L198.837,0C90.166,0 1.938,89.27 1.938,199.225L1.938,796.899C1.938,906.854 90.166,996.124 198.837,996.124L789.535,996.124C898.207,996.124 986.434,906.854 986.434,796.899L986.434,199.225Z"/>
    </g>
    <g transform="matrix(0.914173,0,0,0.903502,48.2283,50)">
        <path d="M986.434,199.225C986.434,89.27 898.207,0 789.535,0L198.837,0C90.166,0 1.938,89.27 1.938,199.225L1.938,796.899C1.938,906.854 90.166,996.124 198.837,996.124L789.535,996.124C898.207,996.124 986.434,906.854 986.434,796.899L986.434,199.225Z" style="fill:rgb(235,121,51);"/>
    </g>
    <g transform="matrix(14.4167,0,0,14.4167,331.693,745.09)">
        <path d="M15.1,-21.85C15.533,-23.483 15.75,-24.85 15.75,-25.95C15.75,-27.05 15.45,-27.958 14.85,-28.675C14.25,-29.392 13.475,-29.75 12.525,-29.75C11.575,-29.75 10.783,-29.283 10.15,-28.35C9.517,-27.417 9.2,-26.35 9.2,-25.15C9.2,-22.817 10.533,-20.817 13.2,-19.15C15.867,-17.417 17.683,-16.167 18.65,-15.4C19.617,-14.633 20.3,-13.933 20.7,-13.3C21.7,-11.667 22.2,-9.983 22.2,-8.25C22.2,-5.25 21.192,-2.858 19.175,-1.075C17.158,0.708 14.883,1.6 12.35,1.6C9.35,1.6 6.833,0.333 4.8,-2.2C3.333,-4.033 1.983,-6.317 0.75,-9.05L5.6,-11.4C6.367,-9.4 7.325,-7.708 8.475,-6.325C9.625,-4.942 10.85,-4.25 12.15,-4.25C12.983,-4.25 13.733,-4.517 14.4,-5.05C15.067,-5.583 15.4,-6.392 15.4,-7.475C15.4,-8.558 14.983,-9.567 14.15,-10.5C13.317,-11.433 12.2,-12.383 10.8,-13.35C9.4,-14.317 8.317,-15.108 7.55,-15.725C6.783,-16.342 5.933,-17.133 5,-18.1C3.233,-19.967 2.35,-22.358 2.35,-25.275C2.35,-28.192 3.367,-30.642 5.4,-32.625C7.433,-34.608 9.85,-35.6 12.65,-35.6C15.45,-35.6 17.808,-34.517 19.725,-32.35C21.642,-30.183 22.6,-27.958 22.6,-25.675C22.6,-23.392 22.167,-21.433 21.3,-19.8L15.1,-21.85Z" style="fill-rule:nonzero;"/>
    </g>
</svg>
