<?xml version="1.0" encoding="UTF-8" standalone="no"?>
<!DOCTYPE svg PUBLIC "-//W3C//DTD SVG 1.1//EN" "http://www.w3.org/Graphics/SVG/1.1/DTD/svg11.dtd">
<svg width="100%" height="100%" viewBox="0 0 1000 1000" version="1.1" xmlns="http://www.w3.org/2000/svg" xmlns:xlink="http://www.w3.org/1999/xlink" xml:space="preserve" xmlns:serif="http://www.serif.com/" style="fill-rule:evenodd;clip-rule:evenodd;stroke-linejoin:round;stroke-miterlimit:2;">
    <g transform="matrix(1.01575,0,0,1.00389,-1.9685,-5.01821e-14)">
        <path d="M986.434,199.225C986.434,89.27 898.207,0 789.535,0L198.837,0C90.166,0 1.938,89.27 1.938,199.225L1.938,796.899C1.938,906.854 90.166,996.124 198.837,996.124L789.535,996.124C898.207,996.124 986.434,906.854 986.434,796.899L986.434,199.225Z"/>
    </g>
    <g transform="matrix(0.914173,0,0,0.903502,48.2283,50)">
        <path d="M986.434,199.225C986.434,89.27 898.207,0 789.535,0L198.837,0C90.166,0 1.938,89.27 1.938,199.225L1.938,796.899C1.938,906.854 90.166,996.124 198.837,996.124L789.535,996.124C898.207,996.124 986.434,906.854 986.434,796.899L986.434,199.225Z" style="fill:rgb(235,121,51);"/>
    </g>
    <g transform="matrix(14.4167,0,0,14.4167,306.463,747.25)">
        <path d="M11.9,-35.05C15.8,-35.05 18.808,-33.517 20.925,-30.45C23.042,-27.383 24.1,-23.667 24.1,-19.3C24.1,-15.933 23.567,-12.758 22.5,-9.775C21.433,-6.792 19.767,-4.292 17.5,-2.275C15.233,-0.258 12.583,0.75 9.55,0.75C8.95,0.75 6.683,0.517 2.75,0.05C3.217,-7.117 3.45,-13.05 3.45,-17.75C3.45,-22.45 3.3,-27.65 3,-33.35C6.233,-34.483 9.2,-35.05 11.9,-35.05ZM10.8,-5.35C12.333,-5.35 13.858,-6.708 15.375,-9.425C16.892,-12.142 17.65,-15.075 17.65,-18.225C17.65,-21.375 17.108,-23.967 16.025,-26C14.942,-28.033 13.65,-29.05 12.15,-29.05C11.35,-29.05 10.6,-28.917 9.9,-28.65C10.033,-23.717 10.1,-19.575 10.1,-16.225C10.1,-12.875 10,-9.383 9.8,-5.75C10.033,-5.483 10.367,-5.35 10.8,-5.35Z" style="fill-rule:nonzero;"/>
    </g>
</svg>
