<?xml version="1.0" encoding="UTF-8" standalone="no"?>
<!DOCTYPE svg PUBLIC "-//W3C//DTD SVG 1.1//EN" "http://www.w3.org/Graphics/SVG/1.1/DTD/svg11.dtd">
<svg width="100%" height="100%" viewBox="0 0 1000 1000" version="1.1" xmlns="http://www.w3.org/2000/svg" xmlns:xlink="http://www.w3.org/1999/xlink" xml:space="preserve" xmlns:serif="http://www.serif.com/" style="fill-rule:evenodd;clip-rule:evenodd;stroke-linejoin:round;stroke-miterlimit:2;">
    <g transform="matrix(1.01575,0,0,1.00389,-1.9685,-5.01821e-14)">
        <path d="M986.434,199.225C986.434,89.27 898.207,0 789.535,0L198.837,0C90.166,0 1.938,89.27 1.938,199.225L1.938,796.899C1.938,906.854 90.166,996.124 198.837,996.124L789.535,996.124C898.207,996.124 986.434,906.854 986.434,796.899L986.434,199.225Z"/>
    </g>
    <g transform="matrix(0.914173,0,0,0.903502,48.2283,50)">
        <path d="M986.434,199.225C986.434,89.27 898.207,0 789.535,0L198.837,0C90.166,0 1.938,89.27 1.938,199.225L1.938,796.899C1.938,906.854 90.166,996.124 198.837,996.124L789.535,996.124C898.207,996.124 986.434,906.854 986.434,796.899L986.434,199.225Z" style="fill:rgb(235,121,51);"/>
    </g>
    <g transform="matrix(14.4167,0,0,14.4167,244.473,750.49)">
        <path d="M14.95,-31.3L19.95,-30.85C20.183,-28.183 20.542,-24.658 21.025,-20.275C21.508,-15.892 21.85,-12.783 22.05,-10.95L22.3,-11C24.667,-21.2 26.2,-29.183 26.9,-34.95L33.45,-34.4C31.583,-23.367 28.85,-12.033 25.25,-0.4L20.45,-0.8C19.317,-4.733 18.05,-9.883 16.65,-16.25C15.217,-9.383 13.85,-3.9 12.55,0.2L7.75,-0.2C4.917,-14.333 3,-25.8 2,-34.6L8.45,-34.05C8.983,-28.417 9.817,-20.717 10.95,-10.95L11.2,-11C13.133,-19.9 14.383,-26.667 14.95,-31.3Z" style="fill-rule:nonzero;"/>
    </g>
</svg>
