<?xml version="1.0" encoding="UTF-8" standalone="no"?>
<!DOCTYPE svg PUBLIC "-//W3C//DTD SVG 1.1//EN" "http://www.w3.org/Graphics/SVG/1.1/DTD/svg11.dtd">
<svg width="100%" height="100%" viewBox="0 0 2000 1000" version="1.1" xmlns="http://www.w3.org/2000/svg" xmlns:xlink="http://www.w3.org/1999/xlink" xml:space="preserve" xmlns:serif="http://www.serif.com/" style="fill-rule:evenodd;clip-rule:evenodd;stroke-linejoin:round;stroke-miterlimit:2;">
    <g transform="matrix(1.02136,0,0,1.05843,-5.93472,-8.30258)">
        <path d="M1963.97,196.804C1963.97,92.514 1876.23,7.844 1768.16,7.844L201.627,7.844C93.553,7.844 5.811,92.514 5.811,196.804L5.811,763.684C5.811,867.974 93.553,952.644 201.627,952.644L1768.16,952.644C1876.23,952.644 1963.97,867.974 1963.97,763.684L1963.97,196.804Z"/>
    </g>
    <g transform="matrix(0.970297,0,0,0.952583,44.362,42.5277)">
        <path d="M1963.97,196.804C1963.97,92.514 1880.85,7.844 1778.46,7.844L191.321,7.844C88.935,7.844 5.811,92.514 5.811,196.804L5.811,763.684C5.811,867.974 88.935,952.644 191.321,952.644L1778.46,952.644C1880.85,952.644 1963.97,867.974 1963.97,763.684L1963.97,196.804Z" style="fill:rgb(235,121,51);"/>
    </g>
    <g transform="matrix(13.6328,0,0,13.6328,-7437.85,-4488.93)">
        <path d="M575.239,360.776C575.673,359.143 575.889,357.776 575.889,356.676C575.889,355.576 575.589,354.668 574.989,353.951C574.389,353.235 573.614,352.876 572.664,352.876C571.714,352.876 570.923,353.343 570.289,354.276C569.656,355.21 569.339,356.276 569.339,357.476C569.339,359.81 570.673,361.81 573.339,363.476C576.006,365.21 577.823,366.46 578.789,367.226C579.756,367.993 580.439,368.693 580.839,369.326C581.839,370.96 582.339,372.643 582.339,374.376C582.339,377.376 581.331,379.768 579.314,381.551C577.298,383.335 575.023,384.226 572.489,384.226C569.489,384.226 566.973,382.96 564.939,380.426C563.473,378.593 562.123,376.31 560.889,373.576L565.739,371.226C566.506,373.226 567.464,374.918 568.614,376.301C569.764,377.685 570.989,378.376 572.289,378.376C573.123,378.376 573.873,378.11 574.539,377.576C575.206,377.043 575.539,376.235 575.539,375.151C575.539,374.068 575.123,373.06 574.289,372.126C573.456,371.193 572.339,370.243 570.939,369.276C569.539,368.31 568.456,367.518 567.689,366.901C566.923,366.285 566.073,365.493 565.139,364.526C563.373,362.66 562.489,360.268 562.489,357.351C562.489,354.435 563.506,351.985 565.539,350.001C567.573,348.018 569.989,347.026 572.789,347.026C575.589,347.026 577.948,348.11 579.864,350.276C581.781,352.443 582.739,354.668 582.739,356.951C582.739,359.235 582.306,361.193 581.439,362.826L575.239,360.776Z" style="fill-rule:nonzero;"/>
        <path d="M587.339,383.476C587.206,379.71 587.139,375.185 587.139,369.901C587.139,364.618 587.306,357.56 587.639,348.726C590.439,347.693 593.314,347.176 596.264,347.176C599.214,347.176 601.848,348.268 604.164,350.451C606.481,352.635 607.639,355.385 607.639,358.701C607.639,362.018 606.381,364.885 603.864,367.301C601.348,369.718 598.056,371.493 593.989,372.626C593.989,376.36 594.039,380.193 594.139,384.126L587.339,383.476ZM598.964,363.776C600.181,362.343 600.789,360.743 600.789,358.976C600.789,357.21 600.331,355.776 599.414,354.676C598.498,353.576 597.473,353.026 596.339,353.026C596.039,353.026 595.356,353.11 594.289,353.276C594.123,357.976 594.023,362.526 593.989,366.926C596.089,366.26 597.748,365.21 598.964,363.776Z" style="fill-rule:nonzero;"/>
        <path d="M623.239,382.126L622.089,375.176L614.639,375.476L612.739,384.876L605.739,384.276L614.689,348.026L623.939,348.826L630.489,382.726L623.239,382.126ZM618.839,354.576L615.689,370.126L621.289,369.926L618.839,354.576Z" style="fill-rule:nonzero;"/>
        <path d="M644.839,353.876C643.373,353.876 642.089,355.685 640.989,359.301C639.889,362.918 639.339,366.126 639.339,368.926C639.339,374.793 640.873,377.726 643.939,377.726C644.806,377.726 645.564,377.351 646.214,376.601C646.864,375.851 647.331,375.076 647.614,374.276C647.898,373.476 648.239,372.376 648.639,370.976L654.989,371.476C654.123,375.576 652.831,378.71 651.114,380.876C649.398,383.043 647.006,384.126 643.939,384.126C640.339,384.126 637.564,382.768 635.614,380.051C633.664,377.335 632.689,373.876 632.689,369.676C632.689,364.776 633.656,360.01 635.589,355.376C636.523,353.076 637.831,351.185 639.514,349.701C641.198,348.218 643.123,347.476 645.289,347.476C647.956,347.476 649.889,348.36 651.089,350.126C651.689,350.993 652.181,351.876 652.564,352.776C652.948,353.676 653.223,354.826 653.389,356.226C653.689,358.46 653.873,360.86 653.939,363.426L647.489,362.826C647.489,358.526 647.089,355.826 646.289,354.726C645.923,354.16 645.439,353.876 644.839,353.876Z" style="fill-rule:nonzero;"/>
        <path d="M659.239,382.826C659.106,377.56 659.039,372.576 659.039,367.876C659.039,363.176 659.306,357.06 659.839,349.526C665.539,348.66 671.106,348.226 676.539,348.226L676.539,354.376C672.773,354.376 669.273,354.493 666.039,354.726C665.906,358.46 665.823,361.326 665.789,363.326C668.323,362.96 671.323,362.743 674.789,362.676L675.739,368.176C673.506,368.21 670.156,368.46 665.689,368.926C665.689,372.926 665.706,375.81 665.739,377.576C668.639,377.343 672.106,376.843 676.139,376.076L676.989,381.576C674.156,382.876 670.806,383.526 666.939,383.526L659.239,382.826Z" style="fill-rule:nonzero;"/>
    </g>
</svg>
